# xmcd CD database file
#
# Track frame offsets:
#	150
#	18073
#	38293
#	51706
#	64524
#	76586
#	93648
#	105743
#	121980
#	136049
#	150759
#	165061
#	180702
#	195911
#	209001
#
# Disc length: 3111 seconds
#
# Revision: 1
# Processed by: cddbd v1.5.1PL2 Copyright (c) Steve Scherf et al.
# Submitted via: CDex 1.51
#
DISCID=a80c250f
DTITLE=Janet Evanovich - 01-One For The Money
DYEAR=1996
DGENRE=Audio Book
TTITLE0=One For The Money-01.01
TTITLE1=One For The Money-01.02
TTITLE2=One For The Money-01.03
TTITLE3=One For The Money-01.04
TTITLE4=One For The Money-01.05
TTITLE5=One For The Money-01.06
TTITLE6=One For The Money-01.07
TTITLE7=One For The Money-01.08
TTITLE8=One For The Money-01.09
TTITLE9=One For The Money-01.10
TTITLE10=One For The Money-01.11
TTITLE11=One For The Money-01.12
TTITLE12=One For The Money-01.13
TTITLE13=One For The Money-01.14
TTITLE14=One For The Money-01.15
EXTD=YEAR: 1996
EXTT0=
EXTT1=
EXTT2=
EXTT3=
EXTT4=
EXTT5=
EXTT6=
EXTT7=
EXTT8=
EXTT9=
EXTT10=
EXTT11=
EXTT12=
EXTT13=
EXTT14=
PLAYORDER=
